<svg xmlns="http://www.w3.org/2000/svg" xmlns:xlink="http://www.w3.org/1999/xlink" width="240" height="100" viewBox="0 0 240 100" fill="none"><path     fill="#000000"  d="M33 58L19.76 48.84L5.96 57.96L2 52.84L14.12 45.12L8.04 39.36L10.68 37.16L4.92 39.48L2.72 34.28L13.08 30.2L3.4 30.2L3.4 24.72L16.72 24.72L16.16 22.36L22.36 21L23.28 24.72L36 24.72L36 30.2L26.76 30.2L37.08 34.24L34.8 39.52L28.52 36.88L31.56 39.64L25.48 44.84L37.36 52.6L33 58ZM16.88 34.64L13.44 36.04L19.8 41.8L26.4 36L22.88 34.52L24.76 30.2L15 30.2L16.88 34.64Z"></path><path     fill="#000000"  d="M55.32 29.48L51.24 29.48L51.24 24.32L60.84 24.32L60.6 21.88L66.64 21.36L66.92 24.32L77.48 24.32L77.48 29.48L73.08 29.48L78.08 38.24L73.16 40.72L72 38.64L53.2 39.6L51.32 35.04L55.32 29.48ZM49.72 30.2L43 30.2L43 23.48L49.72 23.48L49.72 30.2ZM68.08 31.72L72.28 29.48L62.2 29.48L58.8 34.44L69.28 33.84L68.08 31.72ZM49.68 40.6L42.96 40.6L42.96 33.88L49.68 33.88L49.68 40.6ZM53.96 40.6L60 41.68L56.8 57.88L50.68 56.68L53.96 40.6ZM75.92 49.4L77.44 49.4L77.44 57.4L68.64 57.4L68.64 41.28L74.44 41.28L74.44 52.84L75.92 52.84L75.92 49.4ZM61.08 41.4L67 41.4L67 57.68L61.08 57.68L61.08 41.4ZM52 44L47.16 57.72L41.12 55.72L46.12 41.8L52 44Z"></path><path     fill="#000000"  d="M118.04 45.36L118.04 50.56L112.44 50.56L112.44 57.68L106.24 57.68L106.24 50.56L101.32 50.56L101.32 45.36L106.24 45.36L106.24 42.48L102 42.48L102 37.48L106.24 37.48L106.24 34.64L101.64 34.64L101.64 29.44L104.6 29.44L101.84 24.24L106.4 22L109.32 27.4L105.32 29.44L109.16 29.44L111.76 21.64L116.6 23.28L114.48 29.44L117.08 29.44L117.08 34.64L112.44 34.64L112.44 37.48L116.96 37.48L116.96 42.48L112.44 42.48L112.44 45.36L118.04 45.36ZM100 30.16L100.76 30.16L100.76 34.84L100 34.84L100.04 42.08L89.08 42.08L88.76 43.24L100.04 43.24L100.04 57.32L84.04 57.32L84.04 50.28L81.48 49.56L83.56 42.08L82.72 42.08L82.72 36.8L85 36.8L85.56 34.84L81.84 34.84L81.84 30.16L86.84 30.16L87.4 28.16L82.52 28.16L82.52 22.92L100 22.92L100 30.16ZM94.56 28.16L92.88 28.16L92.32 30.16L94.56 30.16L94.56 28.16ZM94.56 34.84L91.04 34.84L90.52 36.8L94.56 36.8L94.56 34.84ZM89.36 52.48L94.72 52.48L94.72 48L89.36 48L89.36 52.48Z"></path><path     fill="#000000"  d="M3.855 70.815L6.75 70.815L6.75 82.32L3.195 82.32L3.195 80.355L4.5 80.355L4.5 72.915L3.57 72.915L2.28 82.605L0 82.305L1.275 72.915L0.12 72.915L0.12 70.815L1.545 70.815L1.77 69.195L4.05 69.33L3.855 70.815ZM12.99 70.05L12.99 82.335L7.53 82.335L7.53 70.05L12.99 70.05ZM10.74 72.15L9.75 72.15L9.75 80.235L10.74 80.235L10.74 72.15Z"></path><path     fill="#000000"  d="M26.16 82.695L21.825 74.715L17.025 82.665L14.97 81.375L19.905 73.23L21.615 74.31L19.5 70.41L21.585 69.18L28.32 81.48L26.16 82.695Z"></path><path     fill="#000000"  d="M41.67 82.875L36.705 79.44L31.53 82.86L30.045 80.94L34.59 78.045L32.31 75.885L33.3 75.06L31.14 75.93L30.315 73.98L34.2 72.45L30.57 72.45L30.57 70.395L35.565 70.395L35.355 69.51L37.68 69L38.025 70.395L42.795 70.395L42.795 72.45L39.33 72.45L43.2 73.965L42.345 75.945L39.99 74.955L41.13 75.99L38.85 77.94L43.305 80.85L41.67 82.875ZM35.625 74.115L34.335 74.64L36.72 76.8L39.195 74.625L37.875 74.07L38.58 72.45L34.92 72.45L35.625 74.115Z"></path><path     fill="#000000"  d="M50.04 72.18L48.51 72.18L48.51 70.245L52.11 70.245L52.02 69.33L54.285 69.135L54.39 70.245L58.35 70.245L58.35 72.18L56.7 72.18L58.575 75.465L56.73 76.395L56.295 75.615L49.245 75.975L48.54 74.265L50.04 72.18ZM47.94 72.45L45.42 72.45L45.42 69.93L47.94 69.93L47.94 72.45ZM54.825 73.02L56.4 72.18L52.62 72.18L51.345 74.04L55.275 73.815L54.825 73.02ZM47.925 76.35L45.405 76.35L45.405 73.83L47.925 73.83L47.925 76.35ZM49.53 76.35L51.795 76.755L50.595 82.83L48.3 82.38L49.53 76.35ZM57.765 79.65L58.335 79.65L58.335 82.65L55.035 82.65L55.035 76.605L57.21 76.605L57.21 80.94L57.765 80.94L57.765 79.65ZM52.2 76.65L54.42 76.65L54.42 82.755L52.2 82.755L52.2 76.65ZM48.795 77.625L46.98 82.77L44.715 82.02L46.59 76.8L48.795 77.625Z"></path><path     fill="#000000"  d="M73.56 78.135L73.56 80.085L71.46 80.085L71.46 82.755L69.135 82.755L69.135 80.085L67.29 80.085L67.29 78.135L69.135 78.135L69.135 77.055L67.545 77.055L67.545 75.18L69.135 75.18L69.135 74.115L67.41 74.115L67.41 72.165L68.52 72.165L67.485 70.215L69.195 69.375L70.29 71.4L68.79 72.165L70.23 72.165L71.205 69.24L73.02 69.855L72.225 72.165L73.2 72.165L73.2 74.115L71.46 74.115L71.46 75.18L73.155 75.18L73.155 77.055L71.46 77.055L71.46 78.135L73.56 78.135ZM66.795 72.435L67.08 72.435L67.08 74.19L66.795 74.19L66.81 76.905L62.7 76.905L62.58 77.34L66.81 77.34L66.81 82.62L60.81 82.62L60.81 79.98L59.85 79.71L60.63 76.905L60.315 76.905L60.315 74.925L61.17 74.925L61.38 74.19L59.985 74.19L59.985 72.435L61.86 72.435L62.07 71.685L60.24 71.685L60.24 69.72L66.795 69.72L66.795 72.435ZM64.755 71.685L64.125 71.685L63.915 72.435L64.755 72.435L64.755 71.685ZM64.755 74.19L63.435 74.19L63.24 74.925L64.755 74.925L64.755 74.19ZM62.805 80.805L64.815 80.805L64.815 79.125L62.805 79.125L62.805 80.805Z"></path><path     fill="#000000"  d="M78.51 78.36L78.51 82.59L75.06 82.59L75.06 80.7L76.29 80.7L76.29 78.735L75.165 78.915L74.835 77.01L76.29 76.785L76.29 73.845L74.985 73.845L74.985 71.865L76.29 71.865L76.29 69.255L78.51 69.255L78.51 71.865L79.515 71.865L79.515 73.845L78.51 73.845L78.51 76.425L79.35 76.29L79.605 78.18L78.51 78.36ZM88.32 69.48L88.32 72.375L85.95 72.375L85.95 71.37L82.065 71.37L82.065 72.315L82.86 71.97L83.64 73.725L80.415 75.135L79.635 73.395L81.945 72.375L79.695 72.375L79.695 69.48L88.32 69.48ZM87.435 75.195L84.075 73.785L84.795 72.03L88.155 73.455L87.435 75.195ZM87.15 77.355L88.215 82.125L86.4 82.605L85.29 77.355L84.96 77.355L84.96 82.74L82.62 82.74L82.575 77.355L82.245 77.355L81 82.605L79.185 82.125L80.385 77.355L79.695 77.355L79.695 75.435L82.575 75.435L82.575 74.34L84.96 74.34L84.96 75.435L87.93 75.435L87.93 77.355L87.15 77.355Z"></path><path     fill="#000000"  d="M103.455 73.59L101.85 73.59L101.85 82.68L97.83 82.68L97.83 80.79L99.555 80.79L99.555 73.59L94.065 73.59L94.065 71.49L99.555 71.49L99.555 69.27L101.85 69.27L101.85 71.49L103.455 71.49L103.455 73.59ZM93.165 72.12L90.585 72.12L90.585 69.54L93.165 69.54L93.165 72.12ZM94.545 79.695L95.085 81.525L92.025 82.8L90.885 81.255L90.885 75.465L89.97 75.465L89.97 73.425L93.225 73.425L93.225 80.265L94.545 79.695ZM98.37 78.9L96.39 79.53L95.085 75.375L97.065 74.76L98.37 78.9Z"></path><path     fill="#FFFFFF"  d="M122 22L158 22C159.105 22 160 22.8954 160 24L160 40C160 41.1046 159.105 42 158 42L122 42C120.895 42 120 41.1046 120 40L120 24C120 22.8954 120.895 22 122 22Z"></path><path     fill="#000000" fill-opacity="0.3" d="M139.28 35.8L139.28 39.1L126 39.1L126 25L137.3 25L137.3 35.82L139.28 35.8ZM129.32 35.94L133.96 35.88L133.96 28.04L129.32 27.96L129.32 35.94Z"></path><path     fill="#000000" fill-opacity="0.3" d="M153.96 35.8L153.96 39.1L140.68 39.1L140.68 25L151.98 25L151.98 35.82L153.96 35.8ZM144 35.94L148.64 35.88L148.64 28.04L144 27.96L144 35.94Z"></path><path d="M108 83.1L120.21 76.05L108 69L108 83.1Z"   fill="#FFFFFF" ></path></svg>